<svg width="106" height="103" viewBox="0 0 106 103" fill="none" xmlns="http://www.w3.org/2000/svg">
<g clip-path="url(#clip0)">
<path d="M100.069 75.9609H80.4211C79.3592 75.9609 78.4966 75.0171 78.4966 73.8507C78.4966 72.6864 79.3592 71.7406 80.4211 71.7406H100.069C101.129 71.7406 101.991 70.7948 101.991 69.6306V6.32825C101.991 5.1661 101.129 4.2202 100.069 4.2202H5.77498C4.71324 4.2202 3.84871 5.1661 3.84871 6.32825V69.6306C3.84871 70.7948 4.71324 71.7406 5.77498 71.7406H36.8392C37.9028 71.7406 38.7636 72.6864 38.7636 73.8507C38.7636 75.0171 37.9028 75.9609 36.8392 75.9609H5.77498C2.58961 75.9609 0 73.1213 0 69.6306V6.32825C0 2.83856 2.58961 0 5.77498 0H100.069C103.252 0 105.84 2.83856 105.84 6.32825V69.6306C105.84 73.1213 103.252 75.9609 100.069 75.9609Z" fill="black"/>
<path d="M28.8428 21.8882C34.1424 21.8882 37.433 24.5331 37.433 28.9017C37.433 32.0689 35.7134 34.4335 32.9359 35.1557C36.373 35.7966 38.4196 38.4826 38.4196 42.2506C38.4196 47.0611 34.8734 49.9471 29.0984 49.9471H17.7289V21.8882H28.8428ZM22.0417 33.5114H28.623C31.3629 33.5114 33.0092 32.1091 33.0092 29.7434C33.0092 27.3799 31.3629 26.0971 28.623 26.0971H22.0417V33.5114V33.5114ZM22.0417 45.7382H28.623C31.985 45.7382 33.9958 44.2947 33.9958 41.6488C33.9958 39.1638 31.985 37.6811 28.623 37.6811H22.0417V45.7382V45.7382Z" fill="black"/>
<path d="M65.2932 38.3219C65.2932 45.6578 61.0892 50.148 54.1791 50.148C47.271 50.148 43.0295 45.6578 43.0295 38.3219V21.8882H47.3443V38.3219C47.3443 43.0522 50.0128 45.8979 54.2168 45.8979C58.3831 45.8979 60.9782 43.0924 60.9782 38.3219V21.8882H65.2932V38.3219Z" fill="black"/>
<path d="M81.9676 49.9471H77.6904V40.7669L68.1475 21.8882H72.498L79.8102 35.5565L86.9759 21.8882H91.3622L81.9676 40.6072V49.9471V49.9471Z" fill="black"/>
<path d="M63.7426 102.284C58.3905 102.284 51.4466 99.4688 45.3184 96.9856C41.9019 95.5989 38.6733 94.2924 36.6324 93.8885C33.2874 93.2312 31.3517 90.9479 31.3198 87.6262C31.3009 85.8376 31.9343 84.0963 33.058 82.8516C34.1442 81.6441 35.5894 80.9807 37.1286 80.9807L41.3738 81.1413L25.9413 64.2192C23.5509 61.5961 23.4701 57.5757 25.759 55.0616C27.9898 52.6136 31.7632 52.696 34.0597 55.2141L42.0842 64.0111C42.3623 63.3785 42.7438 62.7891 43.2193 62.2698C44.7922 60.543 47.2108 60.0114 49.2667 60.8419C49.5411 59.9742 49.994 59.1624 50.631 58.4637C52.2284 56.7101 54.6826 56.1971 56.7555 57.0688C57.0298 56.2156 57.481 55.4119 58.1086 54.7237C60.3337 52.2819 64.1466 52.392 66.4564 54.9276L77.2884 66.8074C84.2905 74.4812 81.5167 85.4358 79.0718 90.1546C78.9852 90.3194 78.88 90.4719 78.7579 90.6038L70.4046 99.7615C68.8786 101.435 66.6384 102.284 63.7426 102.284ZM37.106 85.2007C36.484 85.2007 36.048 85.5367 35.7943 85.8169C35.3902 86.2662 35.161 86.9091 35.1685 87.5788C35.1741 88.1887 35.1855 89.3179 37.3127 89.7342C39.69 90.2041 42.9167 91.5126 46.6526 93.0272C52.1889 95.2712 59.0803 98.0634 63.7426 98.0634C65.5805 98.0634 66.9055 97.6306 67.6834 96.7776L75.8376 87.8385C76.6249 86.1858 80.7705 76.5913 74.5672 69.7933L63.7332 57.9094C63.2729 57.4067 62.6808 57.1161 62.1096 57.1161C61.7732 57.1161 61.277 57.2191 60.8298 57.7076C60.0293 58.5854 60.0894 59.8794 60.9726 60.8522C61.7224 61.6764 61.7224 63.0117 60.9707 63.8339C60.2208 64.6561 59.0012 64.6561 58.2496 63.8318L56.2575 61.6474C55.7972 61.1447 55.205 60.8561 54.6321 60.8561C54.2936 60.8561 53.7995 60.9594 53.3522 61.4476C52.5535 62.3234 52.608 63.6133 53.4855 64.5797C53.4988 64.5942 53.5119 64.6108 53.5268 64.6272C53.5268 64.6272 53.5288 64.6293 53.5307 64.6313C53.5327 64.6313 53.5344 64.6376 53.5344 64.6355C53.5363 64.6376 53.5363 64.6395 53.5383 64.6395V64.6417C53.5401 64.6437 53.5421 64.6437 53.5421 64.6458C53.5421 64.6478 53.5438 64.6478 53.5458 64.6498C53.5497 64.6519 53.5513 64.6561 53.5513 64.6561C53.5513 64.6581 53.5532 64.6581 53.5552 64.6602C53.5552 64.6622 53.5571 64.6643 53.5588 64.6643C53.5607 64.6643 53.5607 64.6685 53.5627 64.6705C53.5627 64.6705 53.5627 64.6684 53.5665 64.6745C53.5665 64.6766 53.5683 64.6766 53.5683 64.6766C53.5683 64.6766 53.5702 64.6808 53.5721 64.6829C53.574 64.6829 53.5758 64.6848 53.5758 64.689C53.5777 64.689 53.5777 64.6931 53.5816 64.6931C53.5796 64.6931 53.5832 64.6972 53.5852 64.6972C53.5891 64.7013 53.5891 64.7035 53.5891 64.7035C53.5926 64.7055 53.591 64.7076 53.5926 64.7097H53.5946L53.5965 64.7137H53.5985C53.5985 64.7158 53.6002 64.7179 53.6002 64.7179L53.6022 64.7198C53.604 64.7198 53.6059 64.7261 53.6059 64.7261C53.6059 64.7261 53.6077 64.7282 53.6096 64.7303C53.6096 64.7303 53.6116 64.7343 53.6135 64.7343C53.6155 64.7365 53.6155 64.7385 53.6171 64.7385V64.7405C53.619 64.7426 53.619 64.7426 53.621 64.7448V64.7467C53.6229 64.7467 53.6229 64.7488 53.6246 64.7508C53.6285 64.753 53.6285 64.7549 53.6285 64.7549C53.8031 64.9961 53.9236 65.268 53.9894 65.5525C53.9894 65.5545 53.9894 65.5566 53.9894 65.5586C53.991 65.5607 53.991 65.5627 53.991 65.5648C53.991 65.5669 53.993 65.5688 53.993 65.5709C53.993 65.573 53.993 65.5751 53.9949 65.5772C53.9949 65.5793 53.9949 65.5812 53.9949 65.5833C53.9949 65.5855 53.9969 65.5875 53.9969 65.5895C53.9969 65.5916 53.9969 65.5936 53.9985 65.5957C53.9985 65.5977 53.9985 65.5998 53.9985 65.602C54.0004 65.6039 54.0004 65.606 54.0004 65.608C54.0004 65.6101 54.0004 65.6123 54.0024 65.6143C54.0024 65.6143 54.0024 65.6162 54.0024 65.6205C54.0024 65.6205 54.0024 65.6245 54.0043 65.6266V65.6287C54.0043 65.6287 54.0043 65.6307 54.0063 65.6328C54.0063 65.637 54.0063 65.637 54.0063 65.6391V65.641C54.008 65.641 54.008 65.643 54.008 65.6451C54.008 65.6493 54.008 65.6493 54.01 65.6512V65.6533C54.01 65.6555 54.01 65.6575 54.01 65.6575C54.01 65.6616 54.0118 65.6658 54.0118 65.6658C54.0118 65.6698 54.0118 65.6698 54.0118 65.6698C54.0137 65.6741 54.0118 65.676 54.0137 65.678C54.0155 65.6823 54.0155 65.6823 54.0155 65.6843C54.0155 65.6843 54.0174 65.6905 54.0155 65.6905C54.0174 65.6905 54.0174 65.6946 54.0174 65.6967C54.0174 65.6987 54.0174 65.6987 54.0174 65.7028C54.0174 65.7028 54.0194 65.7028 54.0194 65.707C54.0194 65.707 54.0194 65.711 54.0194 65.7152C54.0194 65.7173 54.0213 65.7194 54.0213 65.7194V65.7215C54.0213 65.7234 54.0213 65.7234 54.0213 65.7276C54.0213 65.7297 54.023 65.7317 54.023 65.7317V65.7337C54.023 65.7358 54.023 65.7358 54.023 65.74L54.0249 65.7441C54.0249 65.7482 54.0249 65.7482 54.0249 65.7523L54.0268 65.7565C54.0268 65.7605 54.0249 65.7605 54.0268 65.7647C54.0268 65.7687 54.0269 65.773 54.0288 65.773C54.0269 65.777 54.0307 65.777 54.0288 65.777C54.0288 65.7813 54.0288 65.7813 54.0288 65.7832C54.0288 65.7813 54.0307 65.7852 54.0307 65.7895C54.0307 65.7895 54.0307 65.7915 54.0307 65.7955C54.0307 65.7955 54.0324 65.7976 54.0324 65.8018C54.0324 65.8037 54.0307 65.8058 54.0324 65.808C54.0324 65.81 54.0324 65.812 54.0324 65.8142C54.0324 65.8182 54.0343 65.8182 54.0343 65.8203C54.0343 65.8223 54.0343 65.8223 54.0343 65.8223C54.0343 65.8266 54.0343 65.8266 54.0343 65.8305C54.0343 65.8327 54.0363 65.8327 54.0363 65.8348C54.0363 65.8387 54.0363 65.8387 54.0363 65.843C54.0363 65.843 54.0363 65.843 54.0363 65.8472C54.0363 65.8472 54.0363 65.8472 54.0363 65.8513C54.0399 65.8533 54.0363 65.8553 54.0382 65.8595V65.8635C54.0382 65.8677 54.0382 65.8677 54.0382 65.8718L54.0399 65.8759C54.0399 65.8801 54.0399 65.8801 54.0399 65.8842C54.0419 65.8842 54.0399 65.8883 54.0399 65.8883C54.0399 65.8924 54.0399 65.8924 54.0419 65.8966C54.0419 65.8966 54.0419 65.9007 54.0419 65.9027C54.0419 65.9048 54.0399 65.907 54.0419 65.909C54.0419 65.9109 54.0419 65.913 54.0419 65.9152C54.0419 65.9172 54.0419 65.9193 54.0419 65.9213C54.0437 65.9233 54.0437 65.9254 54.0437 65.9275C54.0437 65.9295 54.0437 65.9316 54.0437 65.9338C54.0437 65.9357 54.0437 65.9357 54.0437 65.9398C54.0437 65.944 54.0437 65.9461 54.0437 65.9461C54.0437 65.9501 54.0437 65.9501 54.0437 65.9543C54.0457 65.9543 54.0457 65.9583 54.0457 65.9583C54.0457 65.9625 54.0457 65.9625 54.0457 65.9666V65.9707C54.0457 65.9748 54.0457 65.9748 54.0457 65.979V65.983C54.0457 65.9873 54.0457 65.9893 54.0457 65.9913C54.0457 65.9933 54.0474 65.9955 54.0474 65.9975C54.0474 65.9996 54.0474 66.0017 54.0474 66.0038C54.0474 66.0038 54.0474 66.0057 54.0474 66.0078C54.0474 66.0078 54.0474 66.0098 54.0474 66.0141C54.0474 66.0161 54.0474 66.018 54.0474 66.0202C54.0457 66.0243 54.0457 66.0243 54.0474 66.0265C54.0474 66.0284 54.0474 66.0284 54.0474 66.0284C54.0474 66.0325 54.0474 66.0325 54.0474 66.0367C54.0474 66.0367 54.0474 66.0367 54.0474 66.0409C54.0474 66.0409 54.0474 66.0409 54.0474 66.0449C54.0474 66.0449 54.0474 66.0491 54.0474 66.0531V66.0573C54.0474 66.0615 54.0474 66.0634 54.0474 66.0655C54.0474 66.0697 54.0474 66.0697 54.0474 66.0717V66.0738C54.0474 66.0738 54.0474 66.0759 54.0474 66.0778C54.0474 66.0778 54.0474 66.08 54.0474 66.0841C54.0474 66.0841 54.0474 66.0882 54.0474 66.0902C54.0474 66.0923 54.0474 66.0945 54.0474 66.0965C54.0474 66.0984 54.0474 66.0984 54.0474 66.1026V66.1047C54.0474 66.1068 54.0474 66.1068 54.0474 66.111C54.0474 66.1129 54.0474 66.115 54.0474 66.115V66.117C54.0474 66.1213 54.0474 66.1232 54.0474 66.1232C54.0474 66.1273 54.0474 66.1273 54.0474 66.1315C54.0474 66.1315 54.0474 66.1336 54.0474 66.1355C54.0474 66.1355 54.0474 66.1377 54.0474 66.1418V66.1438C54.0474 66.1438 54.0474 66.146 54.0474 66.148C54.0474 66.152 54.0474 66.152 54.0474 66.1541V66.1563C54.0457 66.1603 54.0457 66.1603 54.0457 66.1603C54.0457 66.1645 54.0457 66.1686 54.0457 66.1686V66.1727C54.0457 66.1727 54.0457 66.1768 54.0457 66.181C54.0419 66.1768 54.0457 66.181 54.0457 66.185V66.1871C54.0457 66.1891 54.0457 66.1913 54.0457 66.1932C54.0437 66.1973 54.0437 66.1995 54.0437 66.1995C54.0437 66.2016 54.0437 66.2036 54.0437 66.2055C54.0437 66.2077 54.0437 66.2098 54.0437 66.2118C54.0437 66.2118 54.0437 66.2139 54.0437 66.218C54.0437 66.218 54.0437 66.22 54.0437 66.2242V66.2263C54.0437 66.2284 54.0437 66.2345 54.0419 66.2303C54.0419 66.2345 54.0419 66.2387 54.0419 66.2387V66.2427C54.0419 66.2468 54.0419 66.2468 54.0419 66.251V66.2551C54.0399 66.2592 54.0399 66.2592 54.0399 66.2635C54.0399 66.2635 54.0382 66.2716 54.0399 66.2695C54.0399 66.2716 54.0399 66.2737 54.0399 66.2758C54.0399 66.2777 54.0382 66.2798 54.0382 66.282C53.9969 66.7517 53.8126 67.2071 53.4855 67.5657C53.3728 67.6914 53.249 67.7964 53.1174 67.883C52.9463 67.9965 52.764 68.0768 52.5761 68.1261C51.9484 68.2951 51.2625 68.1097 50.772 67.5718L48.84 65.4516C48.3834 64.9486 47.7934 64.6601 47.2221 64.6601C46.8838 64.6601 46.3877 64.7633 45.9385 65.2578C45.5552 65.676 45.3616 66.1892 45.3785 66.7456C45.3954 67.3307 45.6435 67.9119 46.0739 68.3857C46.0776 68.3899 46.0794 68.3899 46.0776 68.3899C46.0814 68.392 46.0794 68.3941 46.0832 68.3962C46.0851 68.3982 46.0851 68.3982 46.087 68.4022L46.0907 68.4065C46.0926 68.4065 46.0926 68.4065 46.0926 68.4065C46.0945 68.4106 46.0964 68.4106 46.0983 68.4126C46.0983 68.4147 46.1021 68.4147 46.1021 68.4189C46.1021 68.4189 46.1038 68.4229 46.1058 68.4229C46.1077 68.4229 46.1077 68.4229 46.1096 68.427C46.1096 68.427 46.1114 68.427 46.1133 68.4312C46.1152 68.4352 46.117 68.4352 46.119 68.4352C46.119 68.4374 46.1208 68.4394 46.1227 68.4394V68.4415C46.1227 68.4435 46.1246 68.4435 46.1265 68.4456C46.1283 68.4476 46.1283 68.4476 46.1302 68.4518C46.1321 68.4518 46.134 68.4539 46.134 68.4558C46.8255 69.2843 46.8068 70.5721 46.0776 71.3738C45.3484 72.1733 44.1833 72.198 43.4279 71.448C43.4241 71.4459 43.4222 71.4397 43.4222 71.4438C43.4222 71.4418 43.4184 71.4397 43.4184 71.4397C43.4165 71.4397 43.4147 71.4356 43.4147 71.4356H43.4128C43.411 71.4315 43.4128 71.4315 43.409 71.4315C43.4071 71.4273 43.409 71.4315 43.4034 71.4254C43.4034 71.4233 43.4015 71.4233 43.4015 71.4233C43.3997 71.4233 43.3997 71.4191 43.3978 71.4191C43.394 71.415 43.394 71.415 43.3921 71.413C43.3921 71.413 43.3903 71.413 43.3884 71.4088C43.3884 71.4068 43.3846 71.4046 43.3846 71.4046C43.3827 71.4025 43.3827 71.4025 43.379 71.3986C43.379 71.3986 43.3771 71.3986 43.3771 71.3965L43.3752 71.3943C43.3734 71.3943 43.3714 71.3923 43.3714 71.3902C43.3714 71.3883 43.3696 71.3861 43.3658 71.3861L43.3639 71.382C43.3621 71.382 43.3602 71.3779 43.3602 71.3779L31.3385 58.198C30.4985 57.2747 29.2657 57.1862 28.4801 58.0455C27.5876 59.0264 27.8958 60.3926 28.6625 61.2354L47.5452 81.9408C48.1053 82.5549 48.265 83.4802 47.9493 84.2735C47.6355 85.0689 46.9571 85.6006 46.119 85.5429L37.106 85.2007Z" fill="black"/>
</g>
<defs>
<clipPath id="clip0">
<rect width="105.84" height="102.284" fill="white"/>
</clipPath>
</defs>
</svg>
