<svg width="99" height="100" viewBox="0 0 99 100" fill="none" xmlns="http://www.w3.org/2000/svg">
<path d="M67.4303 87.9024C64.4055 87.8797 61.394 87.4962 58.4584 86.7598C48.3205 84.2891 37.8811 78.0215 29.0678 69.1114C20.2544 60.2012 14.0418 49.6543 11.5958 39.4239C9.02026 28.6622 10.8572 19.4551 16.7624 13.4903L18.4485 11.7872C19.9782 10.245 22.0512 9.37891 24.2125 9.37891C26.3738 9.37891 28.4468 10.245 29.9765 11.7872L39.6658 21.5723C41.1934 23.117 42.0515 25.2112 42.0515 27.3946C42.0515 29.578 41.1934 31.6721 39.6658 33.2168L33.9423 38.9961C36.6861 43.8594 40.418 48.7266 44.8285 53.1817C49.239 57.6368 54.0614 61.4082 58.8741 64.1797L64.5956 58.3985C65.3525 57.6337 66.251 57.027 67.2401 56.6131C68.2291 56.1992 69.2891 55.9862 70.3596 55.9862C71.4302 55.9862 72.4902 56.1992 73.4792 56.6131C74.4683 57.027 75.3668 57.6337 76.1237 58.3985L85.811 68.1836C87.339 69.7278 88.1974 71.8217 88.1974 74.0049C88.1974 76.1882 87.339 78.2821 85.811 79.8262L84.123 81.5293C79.9599 85.7422 74.1978 87.9024 67.4303 87.9024ZM24.2125 15.2344C23.9038 15.2329 23.5979 15.2936 23.3126 15.413C23.0274 15.5324 22.7687 15.708 22.5515 15.9297L20.8635 17.6329C16.4414 22.0997 15.1498 29.3516 17.2264 38.0411C19.4249 47.2461 25.0846 56.8106 33.1612 64.9668C41.2378 73.1231 50.7047 78.834 59.8196 81.0625C68.4241 83.1602 75.5997 81.8555 80.0218 77.3887L81.7079 75.6856C82.1485 75.2402 82.3959 74.6364 82.3959 74.0069C82.3959 73.3773 82.1485 72.7735 81.7079 72.3282L72.0225 62.543C71.5816 62.098 70.9839 61.8481 70.3606 61.8481C69.7374 61.8481 69.1396 62.098 68.6987 62.543L61.4458 69.8692C61.0106 70.309 60.4481 70.5976 59.8398 70.6931C59.2315 70.7886 58.6088 70.6861 58.062 70.4004C52.1162 67.295 46.1221 62.7735 40.7273 57.3243C35.3326 51.875 30.866 45.8243 27.7839 39.8184C27.5008 39.2662 27.399 38.6374 27.4932 38.023C27.5874 37.4085 27.8727 36.8403 28.3079 36.4004L35.5627 29.0743C36.0032 28.6289 36.2507 28.0251 36.2507 27.3955C36.2507 26.766 36.0032 26.1622 35.5627 25.7168L25.8754 15.9297C25.6576 15.7084 25.3984 15.533 25.113 15.4137C24.8275 15.2943 24.5214 15.2334 24.2125 15.2344V15.2344Z" fill="black"/>
<path d="M70.5278 52.6816C69.7586 52.6816 69.0209 52.373 68.477 51.8235C67.933 51.2741 67.6274 50.5289 67.6274 49.7519C67.6218 44.6124 65.5982 39.6849 62.0005 36.0504C58.4027 32.416 53.5247 30.3714 48.4365 30.3652C47.6673 30.3652 46.9296 30.0566 46.3856 29.5071C45.8417 28.9577 45.5361 28.2125 45.5361 27.4355C45.5361 26.6585 45.8417 25.9134 46.3856 25.3639C46.9296 24.8145 47.6673 24.5059 48.4365 24.5059C62.2173 24.5059 73.4282 35.834 73.4282 49.7519C73.4282 50.5289 73.1226 51.2741 72.5787 51.8235C72.0348 52.373 71.2971 52.6816 70.5278 52.6816Z" fill="black"/>
<path d="M82.7868 52.6818C82.0176 52.6818 81.2799 52.3731 80.7359 51.8237C80.192 51.2742 79.8864 50.5291 79.8864 49.7521C79.8864 32.2345 65.7712 17.9825 48.4365 17.9825C47.6673 17.9825 46.9296 17.6739 46.3856 17.1245C45.8417 16.575 45.5361 15.8299 45.5361 15.0529C45.5361 14.2759 45.8417 13.5307 46.3856 12.9813C46.9296 12.4318 47.6673 12.1232 48.4365 12.1232C68.9771 12.1232 85.6872 29.004 85.6872 49.7521C85.6872 50.5291 85.3816 51.2742 84.8377 51.8237C84.2938 52.3731 83.556 52.6818 82.7868 52.6818Z" fill="black"/>
</svg>
