<svg width="59" height="50" viewBox="0 0 59 50" fill="none" xmlns="http://www.w3.org/2000/svg">
<path d="M29.4988 29.97C32.7086 29.97 35.3254 27.741 35.3254 25C35.3254 23.918 34.9105 22.919 34.2226 22.103C33.1632 20.851 31.4429 20.03 29.5 20.03C27.5558 20.03 25.8367 20.85 24.7761 22.102C24.0871 22.918 23.6757 23.917 23.6746 24.999C23.6734 27.74 26.2879 29.97 29.4988 29.97Z" fill="black"/>
<path d="M42.2172 18.9202V14.1342L36.6062 14.1492L36.6261 18.9362L42.2172 18.9202Z" fill="black"/>
<path d="M29.5 0.174072C13.4582 0.174072 0.406982 11.3111 0.406982 25.0001C0.406982 38.689 13.4582 49.826 29.5 49.826C45.5417 49.826 58.5929 38.689 58.5929 25.0001C58.5929 11.3111 45.5417 0.174072 29.5 0.174072ZM46.0457 33.6631C46.0457 36.674 43.1769 39.121 39.6507 39.121H19.3492C15.8218 39.121 12.9542 36.674 12.9542 33.6631V16.3391C12.9542 13.3291 15.8218 10.8821 19.3492 10.8821H39.6496C43.1769 10.8821 46.0457 13.3291 46.0457 16.3391V33.6631Z" fill="black"/>
<path d="M38.5492 25C38.5492 29.257 34.491 32.723 29.5 32.723C24.5089 32.723 20.4507 29.257 20.4507 25C20.4507 23.976 20.6898 22.997 21.1164 22.103H16.1769V33.663C16.1769 35.157 17.5984 36.367 19.348 36.367H39.6484C41.398 36.367 42.8195 35.157 42.8195 33.663V22.103H37.8789C38.3066 22.997 38.5492 23.976 38.5492 25Z" fill="black"/>
</svg>
