<svg width="96" height="83" viewBox="0 0 96 83" fill="none" xmlns="http://www.w3.org/2000/svg">
<g clip-path="url(#clip0)">
<path d="M95.099 36.6736C95.099 28.9256 86.7779 25.8264 82.0229 25.8264H68.9468C71.3243 20.6612 73.1074 14.4628 71.9186 9.81405C68.9468 0.516529 60.0313 0 57.0594 0H56.465C54.0876 0 52.8988 1.03306 51.7101 2.58264L45.7664 17.0455L29.7184 30.9917H0V77.4793H29.7184V72.314C30.9072 72.314 33.879 73.8636 36.8509 75.4132C43.9833 78.5124 54.0876 83.1612 63.5975 83.1612C77.8623 83.1612 82.6173 81.6116 86.1835 76.4463C87.9666 73.3471 87.9666 70.7645 87.9666 69.2149C89.1553 68.1818 90.9384 66.6322 91.5328 64.0496C92.1272 61.4669 92.1272 59.9174 91.5328 58.3678C92.7215 56.8182 93.9103 54.7521 94.5046 51.6529C94.5046 49.0702 93.9103 47.0041 93.3159 45.4545C93.9103 43.3884 95.099 40.8058 95.099 36.6736V36.6736ZM14.8592 69.7314C11.293 69.7314 8.91553 67.6653 8.91553 64.5661C8.91553 61.4669 11.293 59.4008 14.8592 59.4008C18.4254 59.4008 20.8029 61.4669 20.8029 64.5661C20.8029 67.6653 18.4254 69.7314 14.8592 69.7314ZM87.3722 47.0041C87.3722 47.0041 88.561 48.0372 88.561 50.6198C88.561 53.719 86.1835 55.2686 86.1835 55.2686L84.4004 56.8182L85.5891 58.3678C85.5891 58.3678 86.7778 59.9174 85.5891 61.9835C84.9947 64.0496 82.6173 65.5992 82.6173 65.5992L80.8342 67.1488L82.0229 69.2149C82.0229 69.2149 83.2116 71.281 81.4285 73.8636C80.2398 75.9297 79.0511 77.4793 64.1918 77.4793C55.8707 77.4793 46.3608 73.3471 39.8227 70.2479C35.0678 68.1818 32.0959 67.1488 29.7184 67.1488V36.157H30.3128C31.5015 36.157 32.6903 35.6405 33.879 35.124L50.5214 20.6612C51.1157 20.1446 51.1157 19.6281 51.7101 19.1116L57.6538 5.16529C60.6256 5.16529 64.7862 6.19835 65.9749 10.8471C66.5693 13.9463 65.3806 19.1116 62.4087 25.3099C61.8144 26.8595 61.8144 27.8926 63.0031 29.4421C63.5975 30.4752 65.3806 30.9917 67.1637 30.9917H82.0229C82.6173 30.9917 89.1553 32.0248 89.1553 36.6736C89.1553 40.8058 87.3722 42.8719 87.3722 42.8719L85.5891 44.938L87.3722 47.0041V47.0041Z" fill="black"/>
</g>
<defs>
<clipPath id="clip0">
<rect width="95.099" height="82.6446" fill="white"/>
</clipPath>
</defs>
</svg>
