<svg width="103" height="100" viewBox="0 0 103 100" fill="none" xmlns="http://www.w3.org/2000/svg">
<path d="M51.5 87.845C51.1012 87.8442 50.7081 87.7535 50.3516 87.58L13.9462 69.945C13.5173 69.7375 13.1565 69.4179 12.9045 69.0222C12.6525 68.6264 12.5192 68.1703 12.5197 67.705V32.43C12.5201 31.9656 12.6539 31.5105 12.9058 31.1157C13.1578 30.721 13.5181 30.4021 13.9462 30.195L50.3516 12.555C50.7083 12.3824 51.1014 12.2926 51.5 12.2926C51.8986 12.2926 52.2917 12.3824 52.6485 12.555L89.0538 30.195C89.4819 30.4021 89.8422 30.721 90.0942 31.1157C90.3461 31.5105 90.4799 31.9656 90.4804 32.43V67.705C90.4808 68.1703 90.3475 68.6264 90.0955 69.0222C89.8435 69.4179 89.4827 69.7375 89.0538 69.945L52.6485 87.58C52.2919 87.7535 51.8988 87.8442 51.5 87.845ZM17.6697 66.16L51.5 82.55L85.3304 66.16V34L51.5 17.585L17.6697 34V66.16Z" fill="black"/>
<path d="M51.5 52.5001C51.1016 52.5008 50.7085 52.4118 50.3515 52.2401L13.9513 34.67C13.3367 34.375 12.868 33.855 12.6482 33.2244C12.4285 32.5938 12.4758 31.9043 12.7797 31.3075C13.0836 30.7108 13.6192 30.2557 14.2688 30.0424C14.9183 29.8291 15.6285 29.875 16.2431 30.17L51.5 47.17L86.7569 30.17C87.0612 30.024 87.3922 29.9375 87.731 29.9156C88.0697 29.8937 88.4096 29.9368 88.7312 30.0424C89.0528 30.148 89.3499 30.3141 89.6053 30.5312C89.8608 30.7483 90.0698 31.0121 90.2203 31.3075C90.3707 31.603 90.4598 31.9244 90.4824 32.2533C90.5049 32.5822 90.4605 32.9121 90.3517 33.2244C90.2429 33.5366 90.0719 33.825 89.8483 34.073C89.6247 34.3211 89.353 34.524 89.0486 34.67L52.6484 52.2401C52.2915 52.4118 51.8984 52.5008 51.5 52.5001V52.5001Z" fill="black"/>
<path d="M69.7001 43.715C69.3035 43.715 68.9122 43.626 68.5568 43.455L32.1514 25.885C31.5368 25.59 31.0681 25.0699 30.8483 24.4393C30.6286 23.8088 30.6759 23.1192 30.9798 22.5225C31.2837 21.9258 31.8193 21.4707 32.4689 21.2574C33.1184 21.044 33.8286 21.09 34.4432 21.385L70.8486 39C71.3694 39.2506 71.7876 39.6649 72.0351 40.1756C72.2826 40.6862 72.3448 41.2631 72.2117 41.8125C72.0786 42.3618 71.758 42.8513 71.302 43.2013C70.8459 43.5512 70.2814 43.7411 69.7001 43.74V43.715Z" fill="black"/>
<path d="M51.5 87.845C50.8171 87.845 50.1621 87.5816 49.6792 87.1128C49.1963 86.6439 48.925 86.008 48.925 85.345V50C48.925 49.337 49.1963 48.7011 49.6792 48.2322C50.1621 47.7634 50.8171 47.5 51.5 47.5C52.1829 47.5 52.8379 47.7634 53.3208 48.2322C53.8037 48.7011 54.075 49.337 54.075 50V85.345C54.075 86.008 53.8037 86.6439 53.3208 87.1128C52.8379 87.5816 52.1829 87.845 51.5 87.845V87.845Z" fill="black"/>
</svg>
