<svg width="57" height="52" viewBox="0 0 57 52" fill="none" xmlns="http://www.w3.org/2000/svg">
<path d="M28.5 0.812561C13.2472 0.812561 0.890625 12.0868 0.890625 26.0001C0.890625 39.9133 13.2489 51.1875 28.5 51.1875C43.7528 51.1875 56.1094 39.9133 56.1094 26.0001C56.1094 12.0868 43.7511 0.812561 28.5 0.812561ZM42.0607 18.0684L37.5292 37.5489C37.1943 38.9302 36.293 39.2649 35.0354 38.6149L28.1331 33.9739L24.8039 36.8989C24.437 37.2337 24.1252 37.518 23.4128 37.518L23.9026 31.109L36.6938 20.5661C37.2513 20.1192 36.5708 19.8657 35.8352 20.3126L20.0266 29.3914L13.2133 27.4512C11.7331 27.0254 11.6993 26.1008 13.525 25.4508L40.144 16.0859C41.3802 15.6797 42.4597 16.3606 42.0589 18.0668L42.0607 18.0684Z" fill="black"/>
</svg>
