<svg width="62" height="50" viewBox="0 0 62 50" fill="none" xmlns="http://www.w3.org/2000/svg">
<g clip-path="url(#clip0)">
<path fill-rule="evenodd" clip-rule="evenodd" d="M31 3.8147e-05C48.1208 3.8147e-05 62 11.1929 62 25C62 38.8072 48.1208 50.0001 31 50.0001C13.8792 50.0001 0 38.8072 0 25C0 11.1929 13.8792 3.8147e-05 31 3.8147e-05ZM32.8567 10.1835C34.9645 10.3957 36.6679 10.8052 38.5368 11.5403C40.375 12.2657 41.5515 12.9515 43.1079 14.1998C44.5663 15.379 45.3751 16.2721 46.2329 17.6586C47.4278 19.5927 48.108 21.892 48.2243 24.4231C48.2673 25.2866 48.2366 25.4791 47.9915 25.7257C47.5258 26.2044 46.5025 26.1253 46.1533 25.5876C46.0429 25.4099 46.0123 25.257 45.9755 24.5662C45.9142 23.5054 45.8225 22.8196 45.6386 22.0005C44.9156 18.7885 43.0037 16.2228 39.9522 14.3823C37.4093 12.8429 34.7806 12.0929 31.3371 11.9301C30.1728 11.8759 29.9706 11.8414 29.7071 11.6785C29.2168 11.3677 29.1924 10.6375 29.6642 10.297C29.9522 10.0848 30.1544 10.0552 31.1532 10.0799C31.674 10.0947 32.44 10.144 32.8567 10.1835ZM18.8492 10.7164C19.0637 10.7756 19.3946 10.9137 19.5846 11.0124C20.7487 11.6341 23.9901 14.9744 25.0503 16.6422C25.6568 17.5944 25.859 18.3 25.6692 18.823C25.473 19.3855 25.1484 19.6815 23.6961 20.6239C23.114 21.0038 22.5685 21.3937 22.4828 21.4973C22.2622 21.7539 22.0845 22.2571 22.0845 22.6123C22.0907 23.4363 22.7525 24.9314 23.6226 26.081C24.2965 26.9741 25.5036 28.1187 26.6985 28.997C28.1017 30.0332 29.3394 30.7387 30.7365 31.2963C32.5318 32.0166 33.6287 32.1992 34.4314 31.8983C34.6336 31.8242 34.848 31.7255 34.9155 31.6812C34.9767 31.6367 35.4486 31.1729 35.9633 30.6598C36.9559 29.6532 37.1827 29.4905 37.8628 29.303C38.7269 29.0661 39.6092 29.1302 40.4976 29.4953C41.1717 29.7766 42.6423 30.5118 43.592 31.0446C44.842 31.7502 47.5136 33.5068 47.8752 33.8571C48.5124 34.4887 48.6227 35.2978 48.1937 36.1909C47.7403 37.1332 45.9756 38.8997 44.7439 39.6546C43.6287 40.3355 42.8383 40.5969 41.7966 40.6364C40.9388 40.671 40.5835 40.6118 39.4866 40.2466C30.8836 37.3898 24.0147 33.1269 18.5612 27.2701C15.712 24.211 13.5428 21.0384 12.0599 17.7474C11.196 15.8281 11.1531 14.9942 11.8638 14.0123C12.1703 13.5979 13.4754 12.5716 14.4251 11.9993C16.0061 11.0519 16.7352 10.7016 17.3174 10.6029C17.7156 10.5338 18.408 10.5881 18.8492 10.7164ZM33.2794 13.7607C36.9989 14.1998 39.8787 15.5912 41.766 17.851C42.8261 19.124 43.4878 20.619 43.7146 22.2225C43.7942 22.8097 43.7942 23.8804 43.7084 24.0581C43.6287 24.2258 43.3714 24.4528 43.1508 24.5465C42.9118 24.6452 42.4033 24.6353 42.1214 24.5169C41.6495 24.3245 41.5087 24.0186 41.5087 23.1897C41.5087 21.9118 41.0981 20.5647 40.3874 19.5187C39.5785 18.3246 38.4021 17.3379 36.9682 16.652C35.7366 16.0599 33.9168 15.6208 32.2562 15.5123C31.6556 15.4728 31.3247 15.3741 31.098 15.1619C30.7488 14.8412 30.712 14.407 31.0061 14.0469C31.3248 13.6472 31.8149 13.583 33.2794 13.7607ZM34.5846 17.4859C35.7917 17.6931 36.717 18.0632 37.5074 18.6602C38.5245 19.4348 39.0822 20.3723 39.3272 21.7193C39.4927 22.5976 39.4253 22.9429 39.0393 23.2291C38.6778 23.4955 38.0099 23.5054 37.6054 23.2537C37.3113 23.0761 37.2194 22.8886 37.152 22.3805C37.0724 21.7045 36.9253 21.2308 36.6742 20.7917C36.1349 19.8591 35.1851 19.3756 33.5797 19.2177C32.8259 19.1437 32.5993 19.0746 32.3542 18.8428C31.9069 18.4135 32.0784 17.7178 32.6973 17.4612C32.9302 17.3675 33.0283 17.3576 33.5429 17.3823C33.8615 17.3971 34.3334 17.4414 34.5846 17.4859Z" fill="black"/>
</g>
<defs>
<clipPath id="clip0">
<rect width="62" height="50" fill="white"/>
</clipPath>
</defs>
</svg>
