<svg width="115" height="100" viewBox="0 0 115 100" fill="none" xmlns="http://www.w3.org/2000/svg">
<g clip-path="url(#clip0)">
<path d="M106.271 13.4432L92.0162 0.988329C90.0556 -0.742984 86.1242 -0.138218 83.3018 2.3173L70.3048 13.5765H25.676V29.2765H7.60681V100H70.8643V84.29H88.9307V34.6766L104.713 21.0022C107.536 18.5567 108.248 15.1557 106.271 13.4432ZM55.8155 58.5668L36.1096 65.5084L31.8789 61.8106L39.9281 44.7049L55.8155 58.5668ZM29.2257 16.6619H66.7464L52.1878 29.2828H29.2257V16.6619ZM11.155 96.9071V32.3695H48.6165L37.1694 42.2947L24.9314 68.2807C23.5246 71.263 25.2018 72.7215 28.6155 71.5296L58.5671 60.9758L67.3074 53.4042V96.9008H11.155V96.9071ZM85.381 81.197H70.8643V50.3352L85.381 37.757V81.197Z" fill="#010002"/>
</g>
<defs>
<clipPath id="clip0">
<rect width="115" height="100" fill="white"/>
</clipPath>
</defs>
</svg>
